<?xml version="1.0" encoding="UTF-8"?>
<svg id="Camada_1" data-name="Camada 1" xmlns="http://www.w3.org/2000/svg" version="1.1" viewBox="0 0 942.97 919.74">
  <defs>
    <style>
      .cls-1 {
        fill: #fff;
        stroke-width: 0px;
      }
    </style>
  </defs>
  <path class="cls-1" d="M99.97,443.56c.06,0,.12,0,.19,0,0,47.37.19,94.75-.13,142.12-.09,12.82,4.01,15.2,14.92,8.75,27.48-16.24,54.9-32.6,82.9-47.91,10.56-5.78,13.93-12.94,13.82-24.58-.5-55.36.24-110.74-.39-166.1-.36-31.66,13.39-56.14,39.03-71.73,59.88-36.4,120.96-70.82,181.72-105.77,27.57-15.86,55.55-15.29,82.95.54,59.95,34.65,119.7,69.65,179.64,104.33,15.4,8.91,26.7,21.35,33.35,37.66,9.39,23.03,2.36,45.08-19.04,57.59-57.08,33.36-114.47,66.18-171.7,99.26-48.84,28.24-97.71,56.42-146.42,84.9-15.93,9.31-15.94,12.16-.9,21.17,19.28,11.55,38.66,22.95,58.28,33.9,16.1,8.98,32.65,9.44,48.92.05,112.02-64.63,223.99-129.34,336.09-193.82,8.4-4.83,12.06-10.83,11.92-20.6-.43-29.68-.78-59.38-.02-89.04,1.32-51.2-22.98-86.42-66.21-110.96-55.5-31.5-110.77-63.42-166.09-95.25-28.15-16.2-55.97-32.99-84.34-48.8-42.82-23.85-83.6-17.51-124.59,6.95-76.7,45.76-153.41,91.65-231.88,134.24-49.18,26.7-72.66,64.89-72.1,119.8.42,41.09.08,82.19.08,123.29ZM845.01,592.06c0-11.8.04-19.22,0-26.64-.13-19.76-1.08-20.32-18.07-10.5-101.62,58.72-203.56,116.89-304.64,176.51-33.61,19.82-64.45,20.49-97.86.33-49.78-30.05-100.67-58.26-150.93-87.53-7.44-4.33-13.57-6.5-21.96-1.46-29.32,17.62-58.96,34.73-88.76,51.52-9.6,5.41-8.17,9.13.05,13.86,86.94,50.09,173.49,100.89,260.97,150.03,34.47,19.37,70.77,16.32,104.78-3.12,85.15-48.67,169.91-98.03,254.84-147.07,18.03-10.41,33.58-23.26,44.83-41.21,15.32-24.44,17.91-51.3,16.74-74.71ZM321.52,425.85c.15,0,.31.01.46.02,0,8.55-.29,17.11.06,25.64.77,19.28,2.45,20.56,19.08,11.13,69.16-39.2,138.11-78.77,207.14-118.22,11.3-6.46,9.27-12.63-.61-18.34-17.21-9.93-34.32-20.07-51.79-29.54-15.66-8.49-32.37-8.94-47.18.69-11.34,7.37-23.69,12.5-35.13,19.5-23.03,14.09-46.48,27.38-68.68,42.93-12.1,8.48-20.88,16.95-21.56,32.11-.51,11.36-1.18,22.72-1.78,34.08Z"/>
  <path class="cls-1" d="M99.97,443.56c0-41.1.34-82.2-.08-123.29-.56-54.92,22.92-93.1,72.1-119.8,78.46-42.6,155.18-88.48,231.88-134.24,40.99-24.46,81.77-30.8,124.59-6.95,28.37,15.8,56.18,32.6,84.34,48.8,55.32,31.83,110.59,63.75,166.09,95.25,43.23,24.54,67.53,59.76,66.21,110.96-.76,29.66-.41,59.36.02,89.04.14,9.77-3.52,15.77-11.92,20.6-112.1,64.48-224.07,129.2-336.09,193.82-16.27,9.39-32.83,8.93-48.92-.05-19.63-10.95-39-22.35-58.28-33.9-15.04-9.01-15.03-11.85.9-21.17,48.71-28.47,97.58-56.66,146.42-84.9,57.23-33.09,114.62-65.91,171.7-99.26,21.4-12.51,28.43-34.56,19.04-57.59-6.65-16.31-17.95-28.75-33.35-37.66-59.93-34.68-119.69-69.68-179.64-104.33-27.4-15.84-55.37-16.4-82.95-.54-60.75,34.95-121.84,69.37-181.72,105.77-25.64,15.59-39.39,40.06-39.03,71.73.63,55.36-.11,110.74.39,166.1.11,11.64-3.26,18.8-13.82,24.58-27.99,15.31-55.42,31.68-82.9,47.91-10.92,6.45-15.01,4.07-14.92-8.75.32-47.37.13-94.75.13-142.12-.06,0-.12,0-.19,0Z"/>
  <path class="cls-1" d="M845.01,592.06c1.17,23.41-1.42,50.27-16.74,74.71-11.26,17.96-26.8,30.8-44.83,41.21-84.94,49.04-169.7,98.39-254.84,147.07-34,19.44-70.3,22.49-104.78,3.12-87.48-49.14-174.03-99.94-260.97-150.03-8.22-4.74-9.66-8.45-.05-13.86,29.8-16.79,59.44-33.9,88.76-51.52,8.39-5.04,14.52-2.87,21.96,1.46,50.26,29.27,101.14,57.49,150.93,87.53,33.41,20.16,64.25,19.49,97.86-.33,101.09-59.61,203.03-117.79,304.64-176.51,16.99-9.82,17.93-9.25,18.07,10.5.05,7.42,0,14.84,0,26.64Z"/>
  <path class="cls-1" d="M321.52,425.85c.6-11.36,1.27-22.72,1.78-34.08.68-15.16,9.46-23.63,21.56-32.11,22.2-15.55,45.65-28.84,68.68-42.93,11.44-7,23.8-12.13,35.13-19.5,14.81-9.63,31.52-9.18,47.18-.69,17.47,9.47,34.57,19.61,51.79,29.54,9.89,5.71,11.92,11.88.61,18.34-69.02,39.45-137.97,79.02-207.14,118.22-16.63,9.43-18.31,8.15-19.08-11.13-.34-8.53-.06-17.09-.06-25.64-.15,0-.31-.01-.46-.02Z"/>
</svg>